<svg width="200" height="200" viewBox="0 0 200 200" fill="none" xmlns="http://www.w3.org/2000/svg">
<circle cx="100" cy="100" r="90" fill="#3B82F6" fill-opacity="0.1"/>
<path d="M110 90C110 106.569 96.5685 120 80 120C63.4315 120 50 106.569 50 90C50 73.4315 63.4315 60 80 60C96.5685 60 110 73.4315 110 90Z" fill="#60A5FA"/>
<path d="M150 110C150 126.569 136.569 140 120 140C103.431 140 90 126.569 90 110C90 93.4315 103.431 80 120 80C136.569 80 150 93.4315 150 110Z" fill="#3B82F6"/>
<path d="M80 120C80 120 50 140 50 160H110L80 120Z" fill="#60A5FA"/>
<path d="M120 140C120 140 150 160 150 180H90L120 140Z" fill="#3B82F6"/>
</svg>
